<?xml version="1.0" encoding="utf-8"?><svg xmlns="http://www.w3.org/2000/svg" xmlns:xlink="http://www.w3.org/1999/xlink"><symbol viewBox="0 0 40 34" id="check" xmlns="http://www.w3.org/2000/svg"><path d="M4.86 2.834c1.76 0 3.12 1.19 3.12 2.618v11.107"/><path d="M31.34 29.728v1.824c0 .397-.48.556-.72.318l-2.64-2.063-2.56 2.142a.389.389 0 01-.56 0l-2.64-2.063-2.64 2.063a.389.389 0 01-.56 0l-2.64-2.063-2.64 2.063a.389.389 0 01-.56 0l-2.08-2.063-2.32 2.063c-.32.238-.72 0-.72-.317V16.559H2.14c-.16 0-.24-.08-.32-.16-.08-.078-.16-.237-.16-.316V6.007c0-.872.32-1.666.96-2.221a3.218 3.218 0 012.32-.952h23.2c1.84 0 3.28 1.428 3.28 3.173v6.585M11 6h11.429M25 6h4M11 9h11.429M25 9h4M11 12h11.429M25 12h4M11 14.389h11.429M11 17.389h11.429M11 20.389h11.429M11 23.389h11.429M11 26.389h11.429"/><path d="M31.18 27.742c3.712 0 6.72-2.984 6.72-6.664 0-3.68-3.008-6.664-6.72-6.664-3.71 0-6.72 2.984-6.72 6.664 0 3.68 3.01 6.664 6.72 6.664z"/><path d="M28.125 21.498l2.559 2.114 3.155-5.667"/></symbol><symbol viewBox="0 0 35 35" id="prizes" xmlns="http://www.w3.org/2000/svg"><g clip-path="url(#bclip0_3501_1262)"><path d="M23.771 12.104s0 1.385 2.115 3.572m-14.802-3.572s0 1.385-2.115 3.572m8.459 2.553l-3.792 4.375-12.615-3.72 3.72-4.374 4.812-1.677m-4.886 7.291v10.063l12.76 3.719M9.99 16.04L4.667 14.51m12.76 3.719l-1.53-.438m1.53.438l3.792 4.375 12.688-3.72-3.719-4.374-4.885-1.604m-.584 3.208l5.47-1.604m0 5.614v10.063l-12.761 3.719V18.229l1.677-.51"/><path d="M19.469 17.5c.292 1.02 1.531 1.312 2.844.947 1.312-.364 2.187-1.385 1.896-2.406-.292-1.02-1.459-1.094-2.771-.656-1.313.364-2.26 1.093-1.969 2.114zM15.532 17.208c-.218 1.02-1.385 1.531-2.697 1.24-1.313-.22-2.26-1.167-2.115-2.188.219-1.02 1.312-1.24 2.698-.948 1.312.292 2.333.875 2.114 1.896zM20.345 11.156c0 .51-.656.875-1.458.875-.802 0-1.459-.364-1.459-.875m0 0c0 .51-.656.875-1.458.875-.802 0-1.458-.364-1.458-.875M21.802 7.875s-.437-.656-1.166-.656c-.438 0-1.167.656-1.167.656m-6.344 0s.438-.656 1.167-.656c.437 0 1.167.656 1.167.656M17.5 10.72v.802m3.209-8.458c.656-.948 1.895-1.532 2.697-1.896.365-.146.803.146.875.583.365 3.136-.583 4.594-.583 4.594m.365 4.375a7.188 7.188 0 00.218-1.75c0-1.02-.145-1.896-.51-2.698m-2.042-2.552c-.291-.219-.656-.438-1.02-.656-.948-.51-2.115-.73-3.282-.73-1.166 0-2.26.292-3.281.73-.365.218-.73.364-1.02.656m1.093-.656c-.656-.948-1.896-1.532-2.698-1.896-.365-.146-.802.146-.875.583-.365 3.136.583 4.594.583 4.594m0 0c-.364.802-.51 1.677-.51 2.698 0 .583.073 1.167.219 1.75m7.51-.948c0 .292-.802.875-1.02.875-.22 0-1.022-.583-1.022-.875 0-.292.438-.438 1.021-.438.584 0 1.021.146 1.021.438zM16.553 12.688c0 .364.364.729.875.729.51 0 .875-.292.875-.73"/></g><defs><clipPath id="bclip0_3501_1262"><path d="M0 0h35v35H0z"/></clipPath></defs></symbol><symbol viewBox="0 0 33 33" id="spend" xmlns="http://www.w3.org/2000/svg"><path d="M4.263 2.13S17.807 5.019 23.445 6.6c1.306.343 2.406 1.168 3.162 2.268l4.95 7.15-1.994 6.05m-2.887-2.612c.275-1.238.55-2.338.55-2.338l-2.613-3.093-3.643-1.307-.894.344-3.094 1.788s-.137 1.443.413 2.062c1.375 1.65 4.262 1.994 5.156 2.819 1.031.962 1.719 2.544 1.719 3.644s-1.72 1.306-2.682.893c-.55-.275-5.362-1.856-8.456-2.956a8.802 8.802 0 01-4.262-3.3c-1.925-2.819-2.957-6.737-2.957-6.737l-4.331-.894"/><path d="M24.476 19.799l1.994-.069c1.925-.069 3.575 2.337 3.712 5.431.07 3.025-1.375 5.569-3.368 5.638l-1.994.069m3.369-5.638c-.07-3.025-1.72-5.5-3.713-5.431-.55 0-.962.137-1.375.481.55.55 1.375 2.337 1.031 3.506-.343.688-1.787 1.1-2.956.413-.069.412-.069.825-.069 1.237.07 3.025 1.72 5.5 3.713 5.431 1.925-.068 3.437-2.612 3.369-5.637z"/></symbol><symbol viewBox="0 0 36 36" id="upload" xmlns="http://www.w3.org/2000/svg"><path d="M28.575 5.4V3.15c0-.375-.525-.6-.825-.375L24.9 4.8l-2.85-2.025a.456.456 0 00-.6 0L18.6 4.8l-2.85-2.025c-.15-.15-.45-.15-.675 0L12.225 4.8l-2.85-2.025a.456.456 0 00-.6 0L6.3 4.8 3.75 2.85c-.3-.225-.825 0-.825.375V18s-.15 8.25-.15 13.425l25.5-.075c.075-3.525.075-6.9.15-10.2M6.525 27.975H17.85M20.1 27.975h4.725M6.525 25.275H17.85M20.1 25.275h4.725M6.525 22.574H17.85M20.1 22.574h4.725M6.525 19.95H17.85M20.1 19.95h3.6M6.525 17.25H17.85M20.1 17.25h1.275M6.525 14.55H17.85M20.1 14.55h.75M6.525 11.926H17.85M20.1 11.926h.75M6.525 9.225H17.85"/><path d="M28.575 19.65a6.3 6.3 0 100-12.6 6.3 6.3 0 000 12.6z"/><path d="M31.574 13.125l-3-3-3 3m3 3.525v-6.525M2.625 33.3c-.825 0-1.5-.675-1.5-1.5v-.525c0-.825.675-1.5 1.5-1.5v1.8h25.8v-1.8c.825 0 1.5.675 1.5 1.5v.525c0 .825-.675 1.5-1.5 1.5h-25.8z"/></symbol></svg>