<?xml version="1.0" encoding="utf-8"?><svg xmlns="http://www.w3.org/2000/svg" xmlns:xlink="http://www.w3.org/1999/xlink"><symbol fill="none" viewBox="0 0 7 14" id="arrow-left" xmlns="http://www.w3.org/2000/svg"><path d="M6.06 1.72L1.713 6.067a1.324 1.324 0 000 1.866L6.06 12.28" stroke="#292D32" stroke-width="1.5" stroke-miterlimit="10" stroke-linecap="round" stroke-linejoin="round"/></symbol><symbol fill="none" viewBox="0 0 7 10" id="arrow-right" xmlns="http://www.w3.org/2000/svg"><path d="M1.333 0L.158 1.175 3.975 5 .158 8.825 1.333 10l5-5-5-5z" fill="#515150"/></symbol><symbol fill="none" viewBox="0 0 24 24" id="box" xmlns="http://www.w3.org/2000/svg"><path d="M3.17 7.44L12 12.55l8.77-5.08M12 21.61v-9.07" stroke="#171716" stroke-width="1.5" stroke-linecap="round" stroke-linejoin="round"/><path d="M9.93 2.48L4.59 5.45c-1.21.67-2.2 2.35-2.2 3.73v5.65c0 1.38.99 3.06 2.2 3.73l5.34 2.97c1.14.63 3.01.63 4.15 0l5.34-2.97c1.21-.67 2.2-2.35 2.2-3.73V9.18c0-1.38-.99-3.06-2.2-3.73l-5.34-2.97c-1.15-.64-3.01-.64-4.15 0z" stroke="#171716" stroke-width="1.5" stroke-linecap="round" stroke-linejoin="round"/><path d="M17 13.24V9.58L7.51 4.1" stroke="#171716" stroke-width="1.5" stroke-linecap="round" stroke-linejoin="round"/></symbol><symbol fill="none" viewBox="0 0 24 24" id="cat" xmlns="http://www.w3.org/2000/svg"><path d="M15 22v-4a4.8 4.8 0 00-1-3.5c3 0 6-2 6-5.5.08-1.25-.27-2.48-1-3.5.28-1.15.28-2.35 0-3.5 0 0-1 0-3 1.5-2.64-.5-5.36-.5-8 0C6 2 5 2 5 2c-.3 1.15-.3 2.35 0 3.5A5.403 5.403 0 004 9c0 3.5 3 5.5 6 5.5-.39.49-.68 1.05-.85 1.65-.17.6-.22 1.23-.15 1.85v4M9 18c-4.51 2-5-2-7-2" stroke="#171716" stroke-width="1.5" stroke-linecap="round" stroke-linejoin="round"/></symbol><symbol fill="none" viewBox="0 0 24 24" id="child" xmlns="http://www.w3.org/2000/svg"><path d="M12 6a1 1 0 100-2 1 1 0 000 2zM9 20l3-6 3 6M6 8l6 2 6-2M12 10v4" stroke="#171716" stroke-width="1.5" stroke-linecap="round" stroke-linejoin="round"/></symbol><symbol fill="none" viewBox="0 0 24 24" id="cooler" xmlns="http://www.w3.org/2000/svg"><path d="M12 8.5V3M12 21v-5.5M10 3h4M10 21h4M8.97 10.25L4.21 7.5M19.79 16.5l-4.76-2.75M3.21 9.23l2-3.46M18.79 18.23l2-3.46M15.5 12a3.5 3.5 0 01-3.5 3.5 3.5 3.5 0 010-7 3.5 3.5 0 013.5 3.5zM19.79 7.5l-4.76 2.75M8.97 13.75L4.21 16.5M20.79 9.23l-2-3.46M5.21 18.23l-2-3.46" stroke="#171716" stroke-width="1.5" stroke-linecap="round" stroke-linejoin="round"/></symbol><symbol fill="none" viewBox="0 0 24 24" id="cube" xmlns="http://www.w3.org/2000/svg"><path d="M2 9V7c0-3 2-5 5-5h10c3 0 5 2 5 5v2M2 15v2c0 3 2 5 5 5h10c3 0 5-2 5-5v-2" stroke="#292D32" stroke-width="1.5" stroke-miterlimit="10" stroke-linecap="round" stroke-linejoin="round"/><path d="M6.7 9.26l5.3 3.07 5.26-3.05M12 17.77v-5.45" stroke="#292D32" stroke-width="1.5" stroke-linecap="round" stroke-linejoin="round"/><path d="M10.76 6.29l-3.2 1.78c-.72.4-1.32 1.41-1.32 2.24v3.39c0 .83.59 1.84 1.32 2.24l3.2 1.78c.68.38 1.8.38 2.49 0l3.2-1.78c.72-.4 1.32-1.41 1.32-2.24v-3.39c0-.83-.59-1.84-1.32-2.24l-3.2-1.78c-.69-.39-1.81-.39-2.49 0z" stroke="#292D32" stroke-width="1.5" stroke-linecap="round" stroke-linejoin="round"/></symbol><symbol fill="none" viewBox="0 0 19 19" id="dot" xmlns="http://www.w3.org/2000/svg"><circle cx="9.5" cy="9.5" r="4.318" fill="#BDBDBD"/><circle cx="9.5" cy="9.5" r="8.5" stroke="#BDBDBD" stroke-width="2"/></symbol><symbol fill="none" viewBox="0 0 24 24" id="eye" xmlns="http://www.w3.org/2000/svg"><path d="M21.27 9.18c-.29-.46-.6-.89-.92-1.29a1 1 0 00-1.49-.09l-3 3c.22.66.26 1.42.06 2.21a4.021 4.021 0 01-2.9 2.9c-.79.2-1.55.16-2.21-.06l-2.46 2.46c-.5.5-.34 1.38.33 1.64 1.07.41 2.18.62 3.32.62 1.78 0 3.51-.52 5.09-1.49 1.61-1 3.06-2.47 4.23-4.34.95-1.51.9-4.05-.05-5.56zM14.02 9.98l-4.04 4.04c-.51-.52-.84-1.24-.84-2.02 0-1.57 1.28-2.86 2.86-2.86.78 0 1.5.33 2.02.84z" fill="#BDBDBD"/><path d="M18.25 5.75l-3.39 3.39A3.986 3.986 0 0012 7.96c-2.24 0-4.04 1.81-4.04 4.04 0 1.12.45 2.13 1.18 2.86l-3.38 3.39h-.01c-1.11-.9-2.13-2.05-3-3.41-1-1.57-1-4.12 0-5.69C3.91 7.33 5.33 5.9 6.91 4.92c1.58-.96 3.31-1.49 5.09-1.49 2.23 0 4.39.82 6.25 2.32zM14.86 12c0 1.57-1.28 2.86-2.86 2.86-.06 0-.11 0-.17-.02l3.01-3.01c.02.06.02.11.02.17z" fill="#BDBDBD"/><path d="M21.77 2.23c-.3-.3-.79-.3-1.09 0L2.23 20.69c-.3.3-.3.79 0 1.09a.758.758 0 001.08-.01L21.77 3.31c.31-.3.31-.78 0-1.08z" fill="#BDBDBD"/></symbol><symbol fill="none" viewBox="0 0 30 30" id="input1" xmlns="http://www.w3.org/2000/svg"><circle cx="15" cy="15" r="6.818" fill="#22BB9C"/><circle cx="15" cy="15" r="14" stroke="#22BB9C" stroke-width="2"/></symbol><symbol fill="none" viewBox="0 0 27 31" id="input2" xmlns="http://www.w3.org/2000/svg"><path d="M26.07 10.323C24.54 3.585 18.664.552 13.5.552h-.015c-5.147 0-11.04 3.019-12.57 9.756-1.707 7.525 2.902 13.898 7.073 17.909a7.927 7.927 0 005.512 2.23 7.867 7.867 0 005.498-2.23c4.17-4.01 8.78-10.37 7.073-17.894zM13.5 17.629a4.593 4.593 0 110-9.187 4.593 4.593 0 110 9.187z" fill="#22BB9C"/></symbol><symbol fill="none" viewBox="0 0 20 20" id="input3" xmlns="http://www.w3.org/2000/svg"><path d="M18.333 9.375h-1.7c-.3-3.175-2.833-5.717-6.008-6.008v-1.7A.63.63 0 0010 1.042a.63.63 0 00-.625.625v1.7C6.2 3.667 3.658 6.2 3.367 9.375h-1.7a.63.63 0 00-.625.625.63.63 0 00.625.625h1.7c.3 3.175 2.833 5.717 6.008 6.008v1.7a.63.63 0 00.625.625.63.63 0 00.625-.625v-1.7c3.175-.3 5.717-2.833 6.008-6.008h1.7a.63.63 0 00.625-.625.63.63 0 00-.625-.625zM10 12.6A2.603 2.603 0 017.4 10c0-1.433 1.167-2.6 2.6-2.6s2.6 1.167 2.6 2.6-1.167 2.6-2.6 2.6z" fill="#22BB9C"/></symbol><symbol fill="none" viewBox="0 0 24 24" id="sex" xmlns="http://www.w3.org/2000/svg"><path d="M10.25 21.5a7.75 7.75 0 100-15.5 7.75 7.75 0 000 15.5zM21.5 2.5L16 8M15 2.5h6.5V9" stroke="#171716" stroke-width="1.5" stroke-linecap="round" stroke-linejoin="round"/></symbol><symbol fill="none" viewBox="0 0 24 24" id="smoke" xmlns="http://www.w3.org/2000/svg"><path d="M18 12H2v4h16M22 12v4M7 12v4M18 8c0-2.5-2-2.5-2-5M22 8c0-2.5-2-2.5-2-5" stroke="#171716" stroke-width="1.5" stroke-linecap="round" stroke-linejoin="round"/></symbol><symbol fill="none" viewBox="0 0 24 24" id="sofa" xmlns="http://www.w3.org/2000/svg"><path d="M20 9V6a2 2 0 00-2-2H6a2 2 0 00-2 2v3" stroke="#171716" stroke-width="1.5" stroke-linecap="round" stroke-linejoin="round"/><path d="M2 11v5a2 2 0 002 2h16a2 2 0 002-2v-5a2 2 0 10-4 0v2H6v-2a2 2 0 00-4 0v0zM4 18v2M20 18v2M12 4v9" stroke="#171716" stroke-width="1.5" stroke-linecap="round" stroke-linejoin="round"/></symbol></svg>